<svg width="139" height="33" viewBox="0 0 139 33" fill="none" xmlns="http://www.w3.org/2000/svg">
<path fill-rule="evenodd" clip-rule="evenodd" d="M38.0857 30.905C46.564 23.9091 44.9003 7.42583 31.6509 1.84617C21.2652 -2.52752 2.76307 2.16016 0.188285 11.2661C-0.790445 14.7274 2.17567 18.743 6.09144 20.3092C6.84077 20.609 7.87125 20.6915 9.07038 20.7876C10.8862 20.9331 13.0887 21.1096 15.2874 22.118C16.5917 22.7162 17.8011 24.4008 19.0824 26.1855C20.9405 28.774 22.9498 31.5729 25.6189 31.5729C26.8474 31.5729 28.1758 31.7251 29.514 31.8783C32.7311 32.2469 36.0051 32.6219 38.0857 30.905ZM28.5128 3.33522C26.0979 1.71272 18.2494 2.09001 16.7024 2.5428C14.7292 3.12032 14.0553 4.77854 13.6737 6.76317C13.3999 8.18667 29.6438 4.09513 28.5128 3.33522ZM21.2157 16.5808C23.6441 16.0371 36.2211 10.5279 36.4386 9.513C36.8332 7.67141 34.5393 5.34477 31.8355 5.34478C30.1682 5.34479 17.7361 9.513 16.9388 11.3977C16.1414 13.2824 19.6007 16.9424 21.2157 16.5808ZM32.9297 30.1804C36.0373 30.7329 17.1546 20.7403 20.0883 23.683C20.9051 24.5023 21.5059 25.398 22.0675 26.2353C22.842 27.39 23.5419 28.4334 24.6308 29.0112C25.8964 29.6828 27.5565 29.7634 29.3663 29.8514C30.5146 29.9072 31.7234 29.9659 32.9297 30.1804ZM34.0914 27.4725C35.5828 26.9228 37.023 13.6378 36.5997 13.2438C35.6613 12.3705 22.2003 20.8477 22.2003 21.5184C22.2003 22.1009 33.532 27.6787 34.0914 27.4725ZM37.88 27.8235C37.4248 27.755 38.4858 12.7293 39.0491 12.5163C39.6569 12.2866 41.033 14.2787 41.033 19.3801C41.033 22.8998 39.278 28.0338 37.88 27.8235ZM10.2369 8.66382C10.8744 7.69791 11.5841 5.79724 11.3441 5.31739C10.9703 4.56972 2.654 7.83993 2.47951 12.224C2.41019 13.9658 3.18068 15.0777 3.91525 15.2541C4.86326 15.4819 9.59941 9.62973 10.2369 8.66382ZM15.6253 18.5409C16.0368 17.0322 13.7052 10.4216 13.0526 10.4216C12.0528 10.4215 6.69901 16.5307 6.50046 17.4939C6.30191 18.4572 15.2138 20.0496 15.6253 18.5409Z" fill="black"/>
<path d="M51.8773 24.2686C51.7234 24.2686 51.5849 24.2147 51.4619 24.107C51.3542 23.9839 51.3003 23.8454 51.3003 23.6916V8.68978C51.3003 8.52053 51.3542 8.38205 51.4619 8.27435C51.5849 8.16664 51.7234 8.11279 51.8773 8.11279H54.3699C54.7392 8.11279 55.0084 8.28204 55.1777 8.62054L59.2397 15.8906L63.3017 8.62054C63.471 8.28204 63.7402 8.11279 64.1095 8.11279H66.579C66.7483 8.11279 66.8868 8.16664 66.9945 8.27435C67.1176 8.38205 67.1791 8.52053 67.1791 8.68978V23.6916C67.1791 23.8608 67.1176 23.9993 66.9945 24.107C66.8868 24.2147 66.7483 24.2686 66.579 24.2686H63.8326C63.6633 24.2686 63.5171 24.2147 63.394 24.107C63.2863 23.9993 63.2325 23.8608 63.2325 23.6916V15.0367L60.6476 19.8603C60.4475 20.2142 60.1783 20.3912 59.8398 20.3912H58.6396C58.4396 20.3912 58.278 20.345 58.155 20.2527C58.0319 20.1604 57.9242 20.0296 57.8318 19.8603L55.2238 15.0367V23.6916C55.2238 23.8454 55.17 23.9839 55.0623 24.107C54.9546 24.2147 54.8161 24.2686 54.6469 24.2686H51.8773Z" fill="black"/>
<path d="M70.9901 24.2686C70.8363 24.2686 70.6978 24.2147 70.5747 24.107C70.467 23.9839 70.4131 23.8454 70.4131 23.6916V8.68978C70.4131 8.52053 70.467 8.38205 70.5747 8.27435C70.6978 8.16664 70.8363 8.11279 70.9901 8.11279H74.0828C74.2521 8.11279 74.3905 8.16664 74.4982 8.27435C74.6213 8.38205 74.6829 8.52053 74.6829 8.68978V23.6916C74.6829 23.8608 74.6213 23.9993 74.4982 24.107C74.3905 24.2147 74.2521 24.2686 74.0828 24.2686H70.9901Z" fill="black"/>
<path d="M78.473 24.2686C78.3191 24.2686 78.1806 24.2147 78.0575 24.107C77.9498 23.9839 77.896 23.8454 77.896 23.6916V8.68978C77.896 8.52053 77.9498 8.38205 78.0575 8.27435C78.1806 8.16664 78.3191 8.11279 78.473 8.11279H80.9194C81.3041 8.11279 81.5657 8.25896 81.7041 8.5513L87.3356 17.4139V8.68978C87.3356 8.52053 87.3894 8.38205 87.4971 8.27435C87.6202 8.16664 87.7587 8.11279 87.9126 8.11279H90.6821C90.8514 8.11279 90.9899 8.16664 91.0976 8.27435C91.2053 8.38205 91.2591 8.52053 91.2591 8.68978V23.6685C91.2591 23.8377 91.2053 23.9839 91.0976 24.107C90.9899 24.2147 90.8514 24.2686 90.6821 24.2686H88.2126C87.8741 24.2686 87.6202 24.1224 87.451 23.83L81.8195 15.2906V23.6916C81.8195 23.8454 81.7657 23.9839 81.658 24.107C81.5503 24.2147 81.4118 24.2686 81.2425 24.2686H78.473Z" fill="black"/>
<path d="M100.508 24.4993C99.0466 24.4993 97.7926 24.2839 96.7463 23.8531C95.7 23.4223 94.9076 22.8607 94.3691 22.1683C93.846 21.4605 93.569 20.6912 93.5382 19.8603C93.5382 19.7372 93.5844 19.6295 93.6767 19.5372C93.7844 19.4295 93.9075 19.3757 94.046 19.3757H96.954C97.1387 19.3757 97.2848 19.4141 97.3925 19.4911C97.5156 19.5526 97.6387 19.6526 97.7618 19.7911C97.9618 20.1911 98.285 20.522 98.7312 20.7835C99.1774 21.0451 99.7697 21.1759 100.508 21.1759C101.385 21.1759 102.055 21.0374 102.516 20.7604C102.978 20.4835 103.209 20.1065 103.209 19.6295C103.209 19.291 103.086 19.0141 102.839 18.7987C102.609 18.5833 102.239 18.3909 101.732 18.2217C101.224 18.0524 100.47 17.8601 99.4697 17.6447C97.6233 17.26 96.2385 16.6984 95.3154 15.9599C94.4076 15.2059 93.9537 14.1366 93.9537 12.7518C93.9537 11.8132 94.2152 10.9747 94.7384 10.2361C95.2615 9.49757 96.0078 8.92058 96.9771 8.50515C97.9464 8.08971 99.0773 7.882 100.37 7.882C101.708 7.882 102.87 8.11279 103.855 8.57439C104.84 9.03598 105.586 9.62066 106.094 10.3284C106.617 11.0208 106.894 11.7055 106.924 12.3825C106.924 12.521 106.878 12.6364 106.786 12.7287C106.694 12.821 106.578 12.8672 106.44 12.8672H103.393C103.209 12.8672 103.055 12.8364 102.932 12.7749C102.824 12.7133 102.724 12.6133 102.632 12.4748C102.539 12.121 102.285 11.8209 101.87 11.5747C101.47 11.3286 100.97 11.2055 100.37 11.2055C99.6774 11.2055 99.1466 11.3286 98.7773 11.5747C98.408 11.8209 98.2234 12.1825 98.2234 12.6595C98.2234 12.9826 98.3234 13.2519 98.5234 13.4673C98.7388 13.6827 99.0773 13.8827 99.5389 14.0673C100.016 14.2366 100.693 14.4135 101.57 14.5982C103.001 14.8597 104.139 15.1906 104.986 15.5906C105.847 15.9753 106.478 16.483 106.878 17.1139C107.278 17.7293 107.478 18.5063 107.478 19.4449C107.478 20.4758 107.178 21.3759 106.578 22.1452C105.994 22.8992 105.17 23.4838 104.109 23.8993C103.062 24.2993 101.862 24.4993 100.508 24.4993Z" fill="black"/>
<path d="M110.365 24.2686C110.211 24.2686 110.073 24.2147 109.95 24.107C109.842 23.9839 109.788 23.8454 109.788 23.6916V8.68978C109.788 8.52053 109.842 8.38205 109.95 8.27435C110.073 8.16664 110.211 8.11279 110.365 8.11279H113.273C113.443 8.11279 113.581 8.16664 113.689 8.27435C113.796 8.38205 113.85 8.52053 113.85 8.68978V13.8135L118.12 8.5513C118.305 8.25896 118.605 8.11279 119.02 8.11279H122.344C122.482 8.11279 122.597 8.16664 122.69 8.27435C122.782 8.36667 122.828 8.47437 122.828 8.59746C122.828 8.70517 122.805 8.79749 122.759 8.87442L117.22 15.8445L123.174 23.5069C123.236 23.5685 123.267 23.6608 123.267 23.7839C123.267 23.907 123.221 24.0224 123.128 24.1301C123.036 24.2224 122.921 24.2686 122.782 24.2686H119.343C118.974 24.2686 118.666 24.1147 118.42 23.807L113.85 18.1063V23.6916C113.85 23.8608 113.796 23.9993 113.689 24.107C113.581 24.2147 113.443 24.2686 113.273 24.2686H110.365Z" fill="black"/>
<path d="M129.823 24.2686C129.67 24.2686 129.531 24.2147 129.408 24.107C129.3 23.9839 129.246 23.8454 129.246 23.6916V18.7294L123.892 8.85134C123.846 8.71286 123.823 8.62824 123.823 8.59746C123.823 8.47437 123.869 8.36667 123.961 8.27435C124.069 8.16664 124.192 8.11279 124.33 8.11279H127.215C127.523 8.11279 127.792 8.27435 128.023 8.59746L131.324 14.552L134.647 8.59746C134.832 8.27435 135.101 8.11279 135.455 8.11279H138.34C138.478 8.11279 138.594 8.16664 138.686 8.27435C138.778 8.36667 138.824 8.47437 138.824 8.59746C138.824 8.6744 138.809 8.75902 138.778 8.85134L133.424 18.7294V23.6916C133.424 23.8608 133.362 23.9993 133.239 24.107C133.132 24.2147 132.993 24.2686 132.824 24.2686H129.823Z" fill="black"/>
</svg>
