<svg width="149" height="33" viewBox="0 0 149 33" fill="none" xmlns="http://www.w3.org/2000/svg">
<path fill-rule="evenodd" clip-rule="evenodd" d="M38.0857 30.905C46.564 23.9091 44.9003 7.42583 31.6509 1.84617C21.2652 -2.52752 2.76307 2.16016 0.188285 11.2661C-0.790445 14.7274 2.17567 18.743 6.09144 20.3092C6.84077 20.609 7.87125 20.6915 9.07038 20.7876C10.8862 20.9331 13.0887 21.1096 15.2874 22.118C16.5917 22.7162 17.8011 24.4008 19.0824 26.1855C20.9405 28.774 22.9498 31.5729 25.6189 31.5729C26.8474 31.5729 28.1758 31.7251 29.514 31.8783C32.7311 32.2469 36.0051 32.6219 38.0857 30.905ZM28.5128 3.33522C26.0979 1.71272 18.2494 2.09001 16.7024 2.5428C14.7292 3.12032 14.0553 4.77854 13.6737 6.76317C13.3999 8.18667 29.6438 4.09513 28.5128 3.33522ZM21.2157 16.5808C23.6441 16.0371 36.2211 10.5279 36.4386 9.513C36.8332 7.67141 34.5393 5.34477 31.8355 5.34478C30.1682 5.34479 17.7361 9.513 16.9388 11.3977C16.1414 13.2824 19.6007 16.9424 21.2157 16.5808ZM32.9297 30.1804C36.0373 30.7329 17.1546 20.7403 20.0883 23.683C20.9051 24.5023 21.5059 25.398 22.0675 26.2353C22.842 27.39 23.5419 28.4334 24.6308 29.0112C25.8964 29.6828 27.5565 29.7634 29.3663 29.8514C30.5146 29.9072 31.7234 29.9659 32.9297 30.1804ZM34.0914 27.4725C35.5828 26.9228 37.023 13.6378 36.5997 13.2438C35.6613 12.3705 22.2003 20.8477 22.2003 21.5184C22.2003 22.1009 33.532 27.6787 34.0914 27.4725ZM37.88 27.8235C37.4248 27.755 38.4858 12.7293 39.0491 12.5163C39.6568 12.2866 41.033 14.2787 41.033 19.3801C41.033 22.8998 39.278 28.0338 37.88 27.8235ZM10.2369 8.66382C10.8744 7.69791 11.5841 5.79724 11.3441 5.31739C10.9703 4.56972 2.654 7.83993 2.47951 12.224C2.41019 13.9658 3.18068 15.0777 3.91525 15.2541C4.86326 15.4819 9.59941 9.62973 10.2369 8.66382ZM15.6253 18.5409C16.0368 17.0322 13.7052 10.4216 13.0526 10.4216C12.0528 10.4215 6.69901 16.5307 6.50046 17.4939C6.30191 18.4572 15.2138 20.0496 15.6253 18.5409Z" fill="white"/>
<path d="M61.077 24.2686C60.9231 24.2686 60.7846 24.2147 60.6616 24.107C60.5539 23.9839 60.5 23.8454 60.5 23.6916V8.68978C60.5 8.52053 60.5539 8.38205 60.6616 8.27435C60.7846 8.16664 60.9231 8.11279 61.077 8.11279H63.5696C63.9389 8.11279 64.2081 8.28204 64.3774 8.62054L68.4394 15.8906L72.5014 8.62054C72.6707 8.28204 72.9399 8.11279 73.3092 8.11279H75.7787C75.948 8.11279 76.0865 8.16664 76.1942 8.27435C76.3173 8.38205 76.3788 8.52053 76.3788 8.68978V23.6916C76.3788 23.8608 76.3173 23.9993 76.1942 24.107C76.0865 24.2147 75.948 24.2686 75.7787 24.2686H73.0322C72.863 24.2686 72.7168 24.2147 72.5937 24.107C72.486 23.9993 72.4322 23.8608 72.4322 23.6916V15.0367L69.8473 19.8603C69.6472 20.2142 69.378 20.3912 69.0395 20.3912H67.8393C67.6393 20.3912 67.4778 20.345 67.3547 20.2527C67.2316 20.1604 67.1239 20.0296 67.0315 19.8603L64.4235 15.0367V23.6916C64.4235 23.8454 64.3697 23.9839 64.262 24.107C64.1543 24.2147 64.0158 24.2686 63.8465 24.2686H61.077Z" fill="white"/>
<path d="M80.1898 24.2686C80.036 24.2686 79.8975 24.2147 79.7744 24.107C79.6667 23.9839 79.6128 23.8454 79.6128 23.6916V8.68978C79.6128 8.52053 79.6667 8.38205 79.7744 8.27435C79.8975 8.16664 80.036 8.11279 80.1898 8.11279H83.2825C83.4518 8.11279 83.5902 8.16664 83.6979 8.27435C83.821 8.38205 83.8826 8.52053 83.8826 8.68978V23.6916C83.8826 23.8608 83.821 23.9993 83.6979 24.107C83.5902 24.2147 83.4518 24.2686 83.2825 24.2686H80.1898Z" fill="white"/>
<path d="M87.6727 24.2686C87.5188 24.2686 87.3803 24.2147 87.2572 24.107C87.1495 23.9839 87.0957 23.8454 87.0957 23.6916V8.68978C87.0957 8.52053 87.1495 8.38205 87.2572 8.27435C87.3803 8.16664 87.5188 8.11279 87.6727 8.11279H90.1191C90.5038 8.11279 90.7654 8.25896 90.9038 8.5513L96.5353 17.4139V8.68978C96.5353 8.52053 96.5891 8.38205 96.6968 8.27435C96.8199 8.16664 96.9584 8.11279 97.1123 8.11279H99.8818C100.051 8.11279 100.19 8.16664 100.297 8.27435C100.405 8.38205 100.459 8.52053 100.459 8.68978V23.6685C100.459 23.8377 100.405 23.9839 100.297 24.107C100.19 24.2147 100.051 24.2686 99.8818 24.2686H97.4123C97.0738 24.2686 96.8199 24.1224 96.6507 23.83L91.0192 15.2906V23.6916C91.0192 23.8454 90.9654 23.9839 90.8577 24.107C90.75 24.2147 90.6115 24.2686 90.4422 24.2686H87.6727Z" fill="white"/>
<path d="M109.708 24.4993C108.246 24.4993 106.992 24.2839 105.946 23.8531C104.9 23.4223 104.107 22.8607 103.569 22.1683C103.046 21.4605 102.769 20.6912 102.738 19.8603C102.738 19.7372 102.784 19.6295 102.876 19.5372C102.984 19.4295 103.107 19.3757 103.246 19.3757H106.154C106.338 19.3757 106.485 19.4141 106.592 19.4911C106.715 19.5526 106.838 19.6526 106.962 19.7911C107.162 20.1911 107.485 20.522 107.931 20.7835C108.377 21.0451 108.969 21.1759 109.708 21.1759C110.585 21.1759 111.254 21.0374 111.716 20.7604C112.178 20.4835 112.408 20.1065 112.408 19.6295C112.408 19.291 112.285 19.0141 112.039 18.7987C111.808 18.5833 111.439 18.3909 110.931 18.2217C110.423 18.0524 109.67 17.8601 108.669 17.6447C106.823 17.26 105.438 16.6984 104.515 15.9599C103.607 15.2059 103.153 14.1366 103.153 12.7518C103.153 11.8132 103.415 10.9747 103.938 10.2361C104.461 9.49757 105.207 8.92058 106.177 8.50515C107.146 8.08971 108.277 7.882 109.57 7.882C110.908 7.882 112.07 8.11279 113.055 8.57439C114.039 9.03598 114.786 9.62066 115.293 10.3284C115.816 11.0208 116.093 11.7055 116.124 12.3825C116.124 12.521 116.078 12.6364 115.986 12.7287C115.893 12.821 115.778 12.8672 115.639 12.8672H112.593C112.408 12.8672 112.254 12.8364 112.131 12.7749C112.024 12.7133 111.924 12.6133 111.831 12.4748C111.739 12.121 111.485 11.8209 111.07 11.5747C110.67 11.3286 110.17 11.2055 109.57 11.2055C108.877 11.2055 108.346 11.3286 107.977 11.5747C107.608 11.8209 107.423 12.1825 107.423 12.6595C107.423 12.9826 107.523 13.2519 107.723 13.4673C107.939 13.6827 108.277 13.8827 108.739 14.0673C109.216 14.2366 109.893 14.4135 110.77 14.5982C112.201 14.8597 113.339 15.1906 114.185 15.5906C115.047 15.9753 115.678 16.483 116.078 17.1139C116.478 17.7293 116.678 18.5063 116.678 19.4449C116.678 20.4758 116.378 21.3759 115.778 22.1452C115.193 22.8992 114.37 23.4838 113.308 23.8993C112.262 24.2993 111.062 24.4993 109.708 24.4993Z" fill="white"/>
<path d="M119.565 24.2686C119.411 24.2686 119.273 24.2147 119.15 24.107C119.042 23.9839 118.988 23.8454 118.988 23.6916V8.68978C118.988 8.52053 119.042 8.38205 119.15 8.27435C119.273 8.16664 119.411 8.11279 119.565 8.11279H122.473C122.642 8.11279 122.781 8.16664 122.888 8.27435C122.996 8.38205 123.05 8.52053 123.05 8.68978V13.8135L127.32 8.5513C127.504 8.25896 127.804 8.11279 128.22 8.11279H131.543C131.682 8.11279 131.797 8.16664 131.89 8.27435C131.982 8.36667 132.028 8.47437 132.028 8.59746C132.028 8.70517 132.005 8.79749 131.959 8.87442L126.42 15.8445L132.374 23.5069C132.436 23.5685 132.467 23.6608 132.467 23.7839C132.467 23.907 132.42 24.0224 132.328 24.1301C132.236 24.2224 132.12 24.2686 131.982 24.2686H128.543C128.174 24.2686 127.866 24.1147 127.62 23.807L123.05 18.1063V23.6916C123.05 23.8608 122.996 23.9993 122.888 24.107C122.781 24.2147 122.642 24.2686 122.473 24.2686H119.565Z" fill="white"/>
<path d="M139.023 24.2686C138.869 24.2686 138.731 24.2147 138.608 24.107C138.5 23.9839 138.446 23.8454 138.446 23.6916V18.7294L133.092 8.85134C133.045 8.71286 133.022 8.62824 133.022 8.59746C133.022 8.47437 133.069 8.36667 133.161 8.27435C133.269 8.16664 133.392 8.11279 133.53 8.11279H136.415C136.723 8.11279 136.992 8.27435 137.223 8.59746L140.523 14.552L143.847 8.59746C144.031 8.27435 144.301 8.11279 144.655 8.11279H147.54C147.678 8.11279 147.793 8.16664 147.886 8.27435C147.978 8.36667 148.024 8.47437 148.024 8.59746C148.024 8.6744 148.009 8.75902 147.978 8.85134L142.624 18.7294V23.6916C142.624 23.8608 142.562 23.9993 142.439 24.107C142.331 24.2147 142.193 24.2686 142.023 24.2686H139.023Z" fill="white"/>
</svg>
